<?xml version="1.0" encoding="UTF-8"?>
<svg xmlns="http://www.w3.org/2000/svg" xmlns:xlink="http://www.w3.org/1999/xlink" viewBox="0 0 50 50" width="50px" height="50px">
<g id="surface15679231">
<path style="fill-rule:nonzero;fill:rgb(100%,100%,100%);fill-opacity:1;stroke-width:1;stroke-linecap:butt;stroke-linejoin:round;stroke:rgb(100%,100%,100%);stroke-opacity:1;stroke-miterlimit:10;" d="M 144.630216 47.661216 C 150.578405 53.582368 151.362485 62.991322 151.362485 85.999999 C 151.362485 109.008675 150.578405 118.417629 144.630216 124.338781 C 138.668509 130.259932 132.463466 130.719565 85.999999 130.719565 C 39.536531 130.719565 33.331488 130.259932 27.369781 124.338781 C 21.421592 118.417629 20.637512 109.008675 20.637512 85.999999 C 20.637512 62.991322 21.421592 53.582368 27.369781 47.661216 C 33.331488 41.740065 39.536531 41.280432 85.999999 41.280432 C 132.463466 41.280432 138.668509 41.740065 144.630216 47.661216 Z M 30.208689 49.580859 C 26.720887 53.203847 24.084758 56.110349 24.084758 85.999999 C 24.084758 115.889648 26.518108 118.512259 30.00591 122.121728 C 33.480193 125.744716 37.278923 127.285838 85.999999 127.285838 C 134.721074 127.285838 138.195357 125.866384 141.764271 122.324507 C 145.252072 118.850224 147.915239 116.268169 147.915239 85.999999 C 147.915239 55.731828 145.27911 53.203847 141.791308 49.580859 C 138.317025 45.97139 133.936995 44.714159 85.999999 44.714159 C 41.10469 44.714159 33.682972 45.97139 30.208689 49.580859 Z M 108.27867 85.851294 L 74.847144 105.209945 L 74.847144 66.790052 Z M 108.27867 85.851294 " transform="matrix(0.288953,0,0,0.288953,0.15,0.15)"/>
<path style=" stroke:none;fill-rule:nonzero;fill:rgb(100%,100%,100%);fill-opacity:1;" d="M 25 12.078125 C 11.574219 12.078125 9.78125 12.210938 8.058594 13.921875 C 6.339844 15.632812 6.113281 18.351562 6.113281 25 C 6.113281 31.648438 6.339844 34.367188 8.058594 36.078125 C 9.78125 37.789062 11.574219 37.921875 25 37.921875 C 38.425781 37.921875 40.21875 37.789062 41.941406 36.078125 C 43.660156 34.367188 43.886719 31.648438 43.886719 25 C 43.886719 18.351562 43.660156 15.632812 41.941406 13.921875 C 40.21875 12.210938 38.425781 12.078125 25 12.078125 Z M 25 13.070312 C 38.851562 13.070312 40.117188 13.433594 41.121094 14.476562 C 42.128906 15.523438 42.890625 16.253906 42.890625 25 C 42.890625 33.746094 42.121094 34.492188 41.113281 35.496094 C 40.082031 36.519531 39.078125 36.929688 25 36.929688 C 10.921875 36.929688 9.824219 36.484375 8.820312 35.4375 C 7.8125 34.394531 7.109375 33.636719 7.109375 25 C 7.109375 16.363281 7.871094 15.523438 8.878906 14.476562 C 9.882812 13.433594 12.027344 13.070312 25 13.070312 Z M 21.777344 19.449219 L 21.777344 30.550781 L 31.4375 24.957031 Z M 21.777344 19.449219 "/>
</g>
</svg>
